<svg xmlns="http://www.w3.org/2000/svg" viewBox="0 0 1200 480" fill="none">
  <rect width="1200" height="480" fill="#0c1220"/>
  <rect x="0" y="0" width="1200" height="480" fill="#152035"/>
  <g opacity="0.2">
    <rect x="0" y="80" width="1200" height="1" fill="#475569"/>
    <rect x="0" y="160" width="1200" height="1" fill="#475569"/>
    <rect x="0" y="240" width="1200" height="1" fill="#475569"/>
  </g>
  <ellipse cx="920" cy="120" rx="300" ry="200" fill="#f59e0b" opacity="0.07"/>
  <rect x="0" y="300" width="1200" height="180" fill="#163024"/>
  <rect x="0" y="298" width="1200" height="5" fill="#2563eb" opacity="0.45"/>
  <circle cx="600" cy="350" r="70" stroke="#3d7a5a" stroke-width="2" fill="none" opacity="0.5"/>
  <g transform="translate(300 175)">
    <circle r="52" fill="#ef4444" opacity="0.12"/>
    <circle r="7" fill="#ef4444"/>
    <text x="-18" y="4" fill="#ef4444" font-family="system-ui,sans-serif" font-size="12" font-weight="800">LIVE</text>
  </g>
  <g transform="translate(780 195)">
    <circle r="76" fill="#f5f5f0"/>
    <path d="M0-76 L23-23 L76-23 L38 9 L57 61 L0 30 L-57 61 L-38 9 L-76-23 L-23-23 Z" fill="#111"/>
    <ellipse cx="-19" cy="-28" rx="22" ry="14" fill="white" opacity="0.22"/>
  </g>
</svg>
