<svg xmlns="http://www.w3.org/2000/svg" width="256" height="256" viewBox="0 0 256 256">
  <defs>
    <radialGradient id="ballShade" cx="35%" cy="30%" r="65%">
      <stop offset="0%" stop-color="#ffffff"/>
      <stop offset="45%" stop-color="#ecece6"/>
      <stop offset="100%" stop-color="#b8b8b0"/>
    </radialGradient>
  </defs>
  <circle cx="128" cy="128" r="120" fill="url(#ballShade)"/>
  <path d="M128 20 L152 72 L208 72 L164 108 L180 168 L128 138 L76 168 L92 108 L48 72 L104 72 Z" fill="#111827"/>
  <path d="M128 20 L152 72 L128 138 Z" fill="#1f2937"/>
  <path d="M152 72 L208 72 L180 168 L128 138 Z" fill="#171717"/>
  <path d="M48 72 L104 72 L128 138 L76 168 Z" fill="#222"/>
  <path d="M104 72 L128 20 L152 72 L128 138 L104 72 Z" fill="#151515"/>
  <path d="M76 168 L128 138 L180 168 L128 218 L76 168 Z" fill="#1a1a1a"/>
  <path d="M128 138 L180 168 L208 72 L164 108 Z" fill="#262626"/>
  <path d="M128 138 L76 168 L48 72 L92 108 Z" fill="#232323"/>
  <ellipse cx="96" cy="88" rx="36" ry="22" fill="#ffffff" opacity="0.22"/>
</svg>
