<svg xmlns="http://www.w3.org/2000/svg" viewBox="0 0 1200 480" fill="none">
  <rect width="1200" height="480" fill="#0f1729"/>
  <ellipse cx="600" cy="520" rx="520" ry="80" fill="#1a2744" opacity="0.9"/>
  <rect x="0" y="320" width="1200" height="160" fill="#1e3a2f"/>
  <rect x="0" y="318" width="1200" height="6" fill="#2d5a45"/>
  <circle cx="600" cy="350" r="90" stroke="#3d7a5a" stroke-width="3" fill="none" opacity="0.6"/>
  <line x1="600" y1="320" x2="600" y2="480" stroke="#3d7a5a" stroke-width="2" opacity="0.5"/>
  <rect x="80" y="320" width="120" height="160" stroke="#3d7a5a" stroke-width="2" fill="none" opacity="0.4"/>
  <rect x="1000" y="320" width="120" height="160" stroke="#3d7a5a" stroke-width="2" fill="none" opacity="0.4"/>
  <g transform="translate(820 200)">
    <circle r="88" fill="#f5f5f0"/>
    <path d="M0-88 L27-27 L88-27 L44 10 L66 71 L0 34 L-66 71 L-44 10 L-88-27 L-27-27 Z" fill="#1a1a1a"/>
    <path d="M0-88 L27-27 L0 34 Z" fill="#2a2a2a"/>
    <path d="M27-27 L88-27 L66 71 L0 34 Z" fill="#222"/>
    <path d="M-27-27 L-88-27 L-66 71 L0 34 Z" fill="#252525"/>
    <path d="M-27-27 L0-88 L27-27 L0 34 Z" fill="#1f1f1f"/>
    <ellipse cx="-22" cy="-34" rx="26" ry="16" fill="white" opacity="0.2"/>
  </g>
  <g opacity="0.2">
    <circle cx="180" cy="100" r="4" fill="#f59e0b"/>
    <circle cx="420" cy="70" r="3" fill="#f59e0b"/>
    <circle cx="680" cy="85" r="3.5" fill="#f59e0b"/>
    <circle cx="980" cy="110" r="4" fill="#f59e0b"/>
  </g>
</svg>
