<svg xmlns="http://www.w3.org/2000/svg" viewBox="0 0 1200 480" fill="none">
  <rect width="1200" height="480" fill="#0f1525"/>
  <rect x="640" y="60" width="480" height="360" rx="16" stroke="#1e293b" stroke-width="2" fill="#111827"/>
  <rect x="680" y="100" width="180" height="10" rx="4" fill="#334155"/>
  <rect x="680" y="126" width="280" height="8" rx="3" fill="#1e293b"/>
  <rect x="680" y="146" width="240" height="8" rx="3" fill="#1e293b"/>
  <rect x="680" y="190" width="400" height="1" fill="#1e293b"/>
  <rect x="680" y="220" width="110" height="80" rx="8" fill="#1a2744" stroke="#2563eb" stroke-width="1"/>
  <rect x="810" y="220" width="110" height="80" rx="8" fill="#1a2744" stroke="#334155" stroke-width="1"/>
  <rect x="940" y="220" width="110" height="80" rx="8" fill="#1a2744" stroke="#334155" stroke-width="1"/>
  <circle cx="735" cy="260" r="22" fill="#f5f5f0"/>
  <path d="M735 238 L742 252 L758 252 L746 262 L751 278 L735 268 L719 278 L724 262 L712 252 L728 252 Z" fill="#111"/>
  <g transform="translate(1020 120)">
    <circle r="32" stroke="#f59e0b" stroke-width="3" fill="none" stroke-dasharray="160 50"/>
    <path d="M18-7 L32 0 L18 7 Z" fill="#f59e0b"/>
  </g>
  <rect x="0" y="300" width="1200" height="180" fill="#163024" opacity="0.5"/>
  <g transform="translate(220 210)">
    <circle r="90" fill="#f5f5f0"/>
    <path d="M0-90 L28-28 L90-28 L45 11 L68 73 L0 35 L-68 73 L-45 11 L-90-28 L-28-28 Z" fill="#111"/>
    <ellipse cx="-22" cy="-32" rx="28" ry="18" fill="white" opacity="0.2"/>
  </g>
</svg>
